<?xml version="1.0" encoding="UTF-8" standalone="no"?>
<svg
   xmlns:dc="http://purl.org/dc/elements/1.1/"
   xmlns:cc="http://creativecommons.org/ns#"
   xmlns:rdf="http://www.w3.org/1999/02/22-rdf-syntax-ns#"
   xmlns:svg="http://www.w3.org/2000/svg"
   xmlns="http://www.w3.org/2000/svg"
   xmlns:sodipodi="http://sodipodi.sourceforge.net/DTD/sodipodi-0.dtd"
   xmlns:inkscape="http://www.inkscape.org/namespaces/inkscape"
   version="1.1"
   id="svg2"
   xml:space="preserve"
   width="668.64001"
   height="668.09332"
   viewBox="0 0 668.64001 668.09332"
   sodipodi:docname="among-us.eps"><metadata
     id="metadata8"><rdf:RDF><cc:Work
         rdf:about=""><dc:format>image/svg+xml</dc:format><dc:type
           rdf:resource="http://purl.org/dc/dcmitype/StillImage" /></cc:Work></rdf:RDF></metadata><defs
     id="defs6" /><sodipodi:namedview
     pagecolor="#ffffff"
     bordercolor="#666666"
     borderopacity="1"
     objecttolerance="10"
     gridtolerance="10"
     guidetolerance="10"
     inkscape:pageopacity="0"
     inkscape:pageshadow="2"
     inkscape:window-width="640"
     inkscape:window-height="480"
     id="namedview4" /><g
     id="g10"
     inkscape:groupmode="layer"
     inkscape:label="ink_ext_XXXXXX"
     transform="matrix(1.3333333,0,0,-1.3333333,0,668.09333)"><g
       id="g12"
       transform="scale(0.1)"><path
         d="m 662.41,4912 c 182.438,77.38 383.4,96.13 579.89,98.72 851.16,-0.25 1702.59,0.23 2553.74,-0.25 182.44,-4.21 368.61,-22.49 539.31,-91.67 270.14,-105.75 491.49,-329.69 593.47,-601.23 82.07,-210.08 87.93,-439.41 85.59,-661.94 -0.23,-813.41 0.25,-1627.07 0,-2440.51 -7.03,-156.37 -10.07,-319.6 -72.44,-465.659 20.16,163.418 -5.17,327.079 -7.03,490.999 -11.27,325.01 -46.42,648.35 -82.33,971.46 -36.09,150.56 -56.48,309.98 -134.09,446.22 -39.16,78.56 -126.62,109.04 -204.73,133.42 -169.52,47.85 -344.45,75.27 -520.3,83.02 -42.91,238.93 -59.11,485.36 -147.49,713.77 -87.45,196.25 -158.51,402.59 -287.02,577.3 -129.66,138.33 -294.99,239.87 -471.08,308.33 -65.18,27.45 -135.53,38.69 -205.86,38.69 -234.71,2.82 -468.98,23.21 -703.7,13.59 -246.43,-18.28 -486.08,-109.71 -684.69,-256.5 -200.49,-148.44 -403.54,-301.55 -549.857,-506.73 -62.598,-92.86 -85.105,-204 -116.293,-309.98 -253.27,-156.41 -422.316,-427.47 -482.098,-716.13 -44.097,-230.95 16.875,-476.68 158.032,-663.81 22.039,-23.45 49.238,-41.29 75.293,-60.51 -9.18,-226.03 -10.098,-452.32 -13.395,-678.34 -11.488,-164.38 -11.715,-329.47 0.254,-494.049 6.078,-245.262 27.672,-490.32 75.262,-731.371 C 377.734,224.668 167.43,453.52 74.0898,725.309 16.1797,889.668 1.86719,1065.77 0,1238.84 0.222656,2083.43 0.222656,2927.81 0,3772.4 1.86719,3961.87 18.9961,4155.55 91.6914,4332.57 193.68,4591.92 404.961,4805.77 662.41,4912"
         style="fill:#f8de25;fill-opacity:1;fill-rule:nonzero;stroke:none"
         id="path14" /><path
         d="m 1348.05,3280.93 c -293.83,-22.98 -576.132,-205.39 -700.405,-475.76 -25.805,-98.02 -37.743,-204.47 -2.118,-301.77 38.692,-116.8 142.098,-191.59 226.036,-274.83 134.847,-78.55 285.847,-125.9 438.017,-158.97 273.66,-92.87 577.55,-103.42 855.87,-24.16 109.04,27.22 198.39,98.02 287.96,162.04 109.94,72.2 164.37,197.45 225.57,308.58 30.49,201.66 81.12,443.15 -61.93,614.79 -64.47,91.45 -185.01,102.72 -286.99,112.81 -93.09,32.59 -192.76,43.6 -290.28,52.5 -230.76,3.3 -461.7,3.99 -691.73,-15.23 m 145.62,988.82 c 198.58,146.79 438.23,238.23 684.69,256.53 234.72,9.6 468.96,-10.8 703.68,-13.62 70.35,0 140.67,-11.24 205.86,-38.66 176.11,-68.48 341.42,-170.02 471.1,-308.36 128.49,-174.68 199.54,-381.02 286.99,-577.3 88.41,-228.38 104.58,-474.81 147.49,-713.76 175.88,-7.76 350.78,-35.18 520.3,-83.02 78.12,-24.38 165.57,-54.87 204.73,-133.42 77.61,-136.22 98,-295.67 134.12,-446.2 35.88,-323.11 71.06,-646.47 82.3,-971.46 1.87,-163.92 27.22,-327.609 7.03,-491.019 C 4887.08,538.43 4744.98,349.41 4567.99,225.379 l -10.32,5.16 c 59.33,378.461 85.08,764.879 52.05,1147.331 -11.75,210.55 -21.11,421.36 -39.89,631.22 -19.7,129.43 -29.77,261.69 -65.86,387.86 -38.72,54.62 -88.91,126.62 -164.84,118.86 -100.14,1.65 -199.79,9.15 -298.54,24.16 8.93,-138.81 25.36,-276.93 31.91,-415.98 30.94,-505.56 19.45,-1013.2 -5.15,-1518.97 C 4063.8,408.512 4034.98,213.191 4036.38,16.6992 3935.35,7.10156 3833.8,-0.660156 3732.29,0.0507813 3759.71,177.32 3740.01,357.168 3746.1,535.609 c 15.26,367.442 11.49,735.321 9.84,1102.771 1.91,258.18 -28.58,515.85 -13.36,774.02 1.88,135.3 13.36,275.75 -34.7,405.19 -54.4,136.71 -56.96,286.09 -90.3,428.16 -22.96,158.06 -77.61,309.76 -154.51,449.52 -61.68,166 -197.2,299.43 -359.43,367.66 -111.42,57 -232.38,100.15 -359.47,95.43 -229.33,-3.96 -469.45,35.87 -688.46,-52.97 -164.36,-74.82 -341.64,-128.52 -488.43,-236.83 -87.7,-82.77 -170,-171.17 -260.99,-250.68 172.12,37.75 347.05,3.99 520.81,8.9 181.71,1.43 362.5,-20.39 541.87,-45.94 125.93,-13.36 237.28,-78.78 344.72,-141.16 112.99,-85.58 180.79,-215.26 254.87,-333.21 69.88,-100.81 45.5,-227.9 54.15,-342.81 8.23,-140.92 -5.61,-288.18 -76.44,-413.15 -84.64,-156.89 -169.99,-333.67 -335.3,-419.51 -249.72,-111.82 -514.23,-205.16 -790.67,-211.25 -312.8,-27.67 -628.41,34.49 -916.855,155.24 -10.293,-143.77 -31.41,-287.01 -29.757,-431.71 C 845.094,1243.74 855.387,1041.83 850.473,840.898 841.801,561.41 927.156,291.75 971.707,18.3398 857.977,33.5703 745.895,62.4219 640.84,108.84 c -47.594,241.07 -69.18,486.109 -75.266,731.359 -11.969,164.581 -11.715,329.671 -0.25,494.061 3.293,226.01 4.239,452.33 13.391,678.34 -26.027,19.25 -53.223,37.05 -75.266,60.5 -141.176,187.13 -202.129,432.86 -158.054,663.84 59.781,288.64 228.859,559.7 482.093,716.11 31.188,105.98 53.7,217.14 116.293,309.97 146.319,205.18 349.399,358.3 549.889,506.73"
         style="fill:#040606;fill-opacity:1;fill-rule:nonzero;stroke:none"
         id="path16" /><path
         d="m 4040.6,2539.97 c 98.73,-15.01 198.37,-22.51 298.52,-24.16 75.95,7.76 126.14,-64.24 164.83,-118.86 36.09,-126.17 46.2,-258.43 65.89,-387.86 -145.62,100.36 -323.59,131.55 -497.33,114.9 -6.58,139.05 -23,277.17 -31.91,415.98 M 2055.72,4105.39 c 219.01,88.84 459.13,49.01 688.43,52.97 127.09,4.72 248.08,-38.43 359.47,-95.43 162.26,-68.23 297.78,-201.66 359.46,-367.66 6.55,-134.13 44.33,-263.81 60.51,-396.76 23.2,-176.55 26.25,-355 51.36,-531.55 33.52,-262.89 -6.59,-526.43 -43.64,-786.72 -18.77,-160.15 -66.11,-314.88 -102.68,-471.77 -50.43,-188.3 -98.5,-379.61 -192.06,-552.189 -61.43,-170.73 -150.05,-345.191 -306.49,-446.722 -160.12,-52.028 -321.94,-110.438 -491.69,-118.868 -195.8,-6.582 -390.88,-43.121 -586.67,-20.859 -148.66,18.047 -303.2,33.777 -437.07,105.746 -194.41,96.133 -350.1,273.883 -406.39,484.91 -63.291,155.932 -86.053,322.902 -134.565,482.792 -1.644,144.7 19.446,287.94 29.766,431.71 288.409,-120.75 604.019,-182.91 916.849,-155.24 276.44,6.09 540.92,99.43 790.67,211.25 165.31,85.84 250.65,262.62 335.3,419.51 70.83,124.97 84.67,272.23 76.44,413.15 -8.67,114.91 15.7,242 -54.17,342.81 -74.09,117.95 -141.88,247.63 -254.85,333.21 -107.44,62.38 -218.79,127.8 -344.72,141.16 -179.36,25.55 -360.16,47.37 -541.9,45.94 -173.76,-4.91 -348.66,28.85 -520.78,-8.9 90.99,79.51 173.29,167.91 260.99,250.68 146.79,108.31 324.07,162.01 488.43,236.83"
         style="fill:#ee252c;fill-opacity:1;fill-rule:nonzero;stroke:none"
         id="path18" /><path
         d="m 4072.5,2124 c 173.76,16.65 351.71,-14.53 497.33,-114.9 18.78,-209.89 28.14,-420.67 39.89,-631.22 33.03,-382.45 7.28,-768.892 -52.05,-1147.329 l -6.11,-18.039 C 4403.6,99.2305 4219.07,42.4805 4036.38,16.7109 c -1.4,196.4881 27.42,391.8201 30.97,588.3201 24.6,505.769 36.09,1013.409 5.15,1518.969 m -609.43,1571.28 c 76.9,-139.76 131.55,-291.48 154.51,-449.51 33.34,-142.1 35.9,-291.46 90.3,-428.17 48.06,-129.44 36.58,-269.89 34.7,-405.19 -15.22,-258.17 15.27,-515.84 13.36,-774.01 1.65,-367.45 5.42,-735.369 -9.84,-1102.779 C 3740.01,357.18 3759.71,177.332 3732.29,0.03125 3003.27,1.69922 2274.02,0.28125 1545.02,0.75 1353.91,2.37109 1161.87,-7 971.707,18.3594 927.156,291.73 841.801,561.391 850.473,840.918 c 4.914,200.922 -5.379,402.812 23.215,602.372 48.535,-159.92 71.265,-326.86 134.592,-482.778 56.26,-211.043 211.98,-388.793 406.36,-484.953 133.89,-71.969 288.41,-87.668 437.06,-105.75 195.8,-22.258 390.91,14.312 586.68,20.863 169.77,8.457 331.59,66.879 491.71,118.898 156.42,101.539 245.04,275.989 306.47,446.719 93.59,172.561 141.63,363.891 192.06,552.191 36.57,156.89 83.93,311.6 102.71,471.77 37.04,260.29 77.13,523.83 43.61,786.69 -25.08,176.58 -28.16,355 -51.36,531.58 -16.18,132.95 -53.93,262.63 -60.51,396.76"
         style="fill:#7f1136;fill-opacity:1;fill-rule:nonzero;stroke:none"
         id="path20" /><path
         d="m 1462,3218.09 c -155.21,-35.63 -322.17,-55.57 -456.29,-148.19 -68.956,-40.81 -90.046,-142.79 -42.679,-207.04 25.328,-52.08 90.969,-30.96 137.159,-34.47 250.67,16.62 502.99,22.03 751.29,63.54 49.01,7.73 83.24,50.41 104.36,92.14 38.66,109.04 -59.81,238.71 -172.84,240.13 -106.93,4.68 -215.02,11.24 -321,-6.11 m -113.95,62.84 c 230.03,19.22 460.97,18.53 691.72,15.23 97.53,-8.89 197.2,-19.91 290.29,-52.49 67.76,-63.55 131.08,-145.87 120.06,-244.82 12.64,-176.55 -105.31,-330.14 -240.35,-429.56 -126.4,-56.52 -270.11,-56.74 -405.66,-71.77 -305.76,-6.09 -610.83,28.14 -914.727,55.81 -126.141,9.63 -253.012,117.95 -241.742,251.84 124.277,270.37 406.579,452.78 700.409,475.76"
         style="fill:#7cd4e7;fill-opacity:1;fill-rule:nonzero;stroke:none"
         id="path22" /><path
         d="m 2330.06,3243.65 c 101.99,-10.07 222.52,-21.34 286.99,-112.78 143.05,-171.64 92.42,-413.16 61.93,-614.82 -61.23,-111.13 -115.63,-236.36 -225.59,-308.58 -89.57,-64.03 -178.89,-134.82 -287.94,-162.04 -278.32,-79.23 -582.21,-68.71 -855.87,24.18 -152.17,33.05 -303.16,80.4 -438.014,158.98 -83.941,83.21 -187.347,158.03 -226.039,274.8 -35.648,97.3 -23.683,203.78 2.118,301.77 -11.27,-133.9 115.601,-242.22 241.75,-251.84 303.895,-27.64 608.955,-61.88 914.725,-55.82 135.51,15.04 279.26,15.26 405.65,71.77 135.05,99.43 252.99,253.02 240.36,429.57 11.02,98.95 -52.31,181.26 -120.07,244.81"
         style="fill:#2d588c;fill-opacity:1;fill-rule:nonzero;stroke:none"
         id="path24" /></g></g></svg>
