<?xml version="1.0" standalone="no"?>
<!DOCTYPE svg PUBLIC "-//W3C//DTD SVG 20010904//EN"
 "http://www.w3.org/TR/2001/REC-SVG-20010904/DTD/svg10.dtd">
<svg version="1.0" xmlns="http://www.w3.org/2000/svg"
 width="512.000000pt" height="512.000000pt" viewBox="0 0 512.000000 512.000000"
 preserveAspectRatio="xMidYMid meet">
<metadata>
Created by potrace 1.16, written by Peter Selinger 2001-2019
</metadata>
<g transform="translate(0.000000,512.000000) scale(0.100000,-0.100000)"
fill="#000000" stroke="none">
<path d="M0 2560 l0 -2560 2560 0 2560 0 0 2560 0 2560 -2560 0 -2560 0 0
-2560z m2795 1731 c246 -171 602 -400 857 -552 l157 -94 1 -242 0 -243 -87 52
c-348 205 -743 457 -1044 666 l-116 80 -79 -55 c-348 -242 -1066 -697 -1148
-729 -14 -6 -16 16 -16 232 l0 239 133 79 c305 183 821 519 1032 673 39 29 72
52 75 52 3 1 109 -71 235 -158z m-95 -936 c287 -202 694 -465 982 -635 l128
-75 0 -245 0 -245 -118 -74 c-64 -41 -175 -103 -247 -137 -544 -262 -1180
-268 -1738 -15 -79 36 -177 91 -304 174 l-93 59 0 237 0 238 188 113 c271 164
616 387 856 554 115 80 214 142 219 139 5 -3 62 -43 127 -88z m-1715 -1986
c58 -15 121 -70 135 -117 5 -20 10 -72 10 -114 l0 -78 -85 -2 c-47 -1 -93 -2
-102 -2 -16 -1 -19 12 -23 99 -4 86 -8 100 -23 103 -44 9 -47 -7 -47 -248 0
-241 3 -257 47 -248 15 3 18 16 21 91 l3 87 104 0 105 0 0 -74 c0 -116 -25
-160 -115 -202 -91 -43 -252 -28 -313 29 -54 50 -57 66 -60 307 -3 218 -2 226
20 269 26 50 56 75 114 96 47 17 149 19 209 4z m875 -284 l0 -285 65 0 66 0
-3 -72 -3 -73 -162 -3 -163 -2 0 360 0 360 100 0 100 0 0 -285z m370 0 l0
-285 60 0 60 0 0 -70 0 -69 -157 -3 c-87 -2 -161 -2 -165 0 -5 2 -8 163 -8
358 l0 354 105 0 105 0 0 -285z m709 264 c24 -7 54 -27 71 -45 36 -42 44 -111
39 -371 -6 -275 -3 -273 -299 -273 l-190 0 0 348 c0 192 3 352 8 357 11 11
324 -2 371 -16z m351 -258 c0 -288 5 -335 38 -329 16 3 17 28 22 303 l5 300
103 3 102 3 0 -296 c0 -326 0 -327 -63 -382 -92 -80 -313 -63 -379 30 -16 22
-23 53 -29 116 -10 108 -11 515 -2 524 3 4 51 7 105 7 l98 0 0 -279z m919 144
l25 -129 23 109 c12 61 25 120 28 133 5 21 10 22 100 22 52 0 95 -1 95 -3 0
-1 -34 -104 -75 -227 l-75 -225 0 -132 0 -133 -95 0 -95 0 0 126 c0 126 -1
129 -52 285 l-51 159 -59 0 -58 0 0 -280 0 -280 -105 0 -105 0 0 280 0 279
-62 3 -63 3 -3 59 c-2 32 -1 65 2 73 5 11 58 13 303 11 l298 -3 24 -130z
m-2626 -222 c31 -192 57 -351 57 -355 0 -5 -47 -8 -104 -8 l-104 0 -7 65 -7
65 -34 0 c-37 0 -41 -8 -46 -85 l-3 -40 -109 -3 -109 -3 6 28 c2 15 26 175 53
356 l48 327 151 0 150 0 58 -347z m811 201 c23 -23 23 -190 -1 -216 -20 -22
-70 -23 -95 -1 -15 13 -18 32 -18 114 0 83 3 100 18 108 26 16 79 13 96 -5z
m136 -4 c0 -13 -7 -20 -20 -20 -16 0 -20 -7 -20 -30 0 -23 4 -30 20 -30 11 0
20 -7 20 -15 0 -8 -9 -15 -20 -15 -18 0 -20 -7 -20 -60 l0 -60 -30 0 -30 0 0
125 0 125 50 0 c43 0 50 -3 50 -20z m1973 -442 c55 -64 -43 -148 -103 -88 -11
11 -20 29 -20 41 0 69 77 99 123 47z"/>
<path d="M2430 2863 c-203 -140 -613 -406 -847 -548 -79 -48 -143 -93 -143
-100 0 -23 62 -40 138 -39 41 1 79 7 85 13 6 6 19 11 29 11 10 0 18 5 18 10 0
6 9 10 19 10 11 0 43 16 72 35 30 19 59 35 66 35 7 0 13 3 13 8 0 4 10 12 23
17 16 7 49 3 129 -17 193 -49 314 -63 538 -62 220 0 355 17 548 67 51 14 94
21 97 17 2 -3 34 -21 70 -40 36 -18 70 -39 76 -47 6 -7 20 -13 30 -13 10 0 21
-4 24 -10 3 -5 15 -10 25 -10 10 0 20 -4 22 -9 2 -4 30 -11 63 -15 65 -7 165
16 165 38 0 7 -44 38 -97 71 -205 124 -547 344 -781 501 -133 90 -246 164
-250 164 -4 0 -63 -39 -132 -87z"/>
<path d="M2770 1010 l0 -230 25 0 c18 0 28 7 35 26 13 34 13 390 0 415 -6 11
-21 19 -35 19 l-25 0 0 -230z"/>
</g>
</svg>
