<?xml version="1.0" standalone="no"?>
<!DOCTYPE svg PUBLIC "-//W3C//DTD SVG 20010904//EN"
 "http://www.w3.org/TR/2001/REC-SVG-20010904/DTD/svg10.dtd">
<svg version="1.0" xmlns="http://www.w3.org/2000/svg"
 width="1969.000000pt" height="1805.000000pt" viewBox="0 0 1969.000000 1805.000000"
 preserveAspectRatio="xMidYMid meet">
<metadata>
Created by potrace 1.16, written by Peter Selinger 2001-2019
</metadata>
<g transform="translate(0.000000,1805.000000) scale(0.100000,-0.100000)"
fill="#000000" stroke="none">
<path d="M0 9025 l0 -9025 9845 0 9845 0 0 9025 0 9025 -9845 0 -9845 0 0
-9025z m3544 4850 c349 -5 383 -7 424 -25 47 -21 74 -25 86 -12 4 4 71 8 149
8 78 1 173 5 210 9 43 4 72 3 81 -4 8 -7 31 -7 67 -2 30 5 55 6 57 1 1 -4 14
-5 27 -2 14 2 32 -2 41 -9 13 -10 17 -10 24 2 7 11 38 14 147 13 155 0 610 -3
633 -4 195 -5 301 -5 324 1 19 6 40 3 63 -6 19 -8 40 -12 47 -8 6 4 54 8 106
10 52 1 143 4 203 5 59 2 107 1 107 -3 0 -3 12 -7 28 -7 15 -1 36 -2 47 -3 11
-1 42 3 70 9 29 6 70 7 100 2 27 -4 95 -5 150 -2 55 3 112 5 128 4 90 -3 115
-6 138 -18 17 -8 29 -10 36 -3 12 12 332 19 339 8 3 -5 24 -8 47 -7 l42 3 3
-40 c3 -39 3 -39 -17 -21 -12 11 -22 17 -24 15 -33 -57 -23 -69 51 -57 29 5
57 6 62 3 4 -3 10 1 13 7 2 7 -9 18 -25 25 -39 17 -45 39 -17 64 21 18 33 20
114 15 49 -3 104 -5 120 -5 65 0 411 7 420 9 6 1 134 2 287 2 179 0 283 -4
296 -11 14 -8 29 -8 47 -1 14 5 63 10 108 10 68 -1 86 -4 107 -21 l25 -21 -24
-19 c-13 -10 -29 -19 -37 -19 -20 0 -17 -18 4 -24 88 -25 143 -14 120 24 -9
14 -16 16 -31 8 -25 -13 -30 -6 -22 30 6 31 33 46 56 31 7 -4 22 -3 33 3 19
10 197 11 301 2 59 -5 64 -5 135 6 36 6 72 10 80 10 104 -6 428 -12 470 -9 49
3 281 3 445 -1 60 -1 360 0 683 2 42 1 115 0 162 -2 47 -1 98 3 113 9 36 14
37 14 37 -5 0 -9 5 -12 12 -8 6 4 17 -1 25 -11 7 -11 13 -16 13 -12 0 4 21 -4
47 -18 65 -34 107 -32 205 12 73 33 91 37 153 35 39 -1 159 -3 267 -4 l197 -3
-2 -64 c-1 -41 2 -65 10 -68 8 -3 10 8 6 36 -4 26 -2 41 5 41 6 0 10 12 9 28
-2 27 -1 27 63 28 217 4 403 5 455 4 37 -1 75 4 98 14 34 15 39 15 62 0 15
-10 32 -13 42 -9 10 4 50 9 90 11 60 2 72 0 78 -14 6 -16 7 -16 16 1 11 18 18
19 197 17 44 0 58 0 122 1 36 1 243 2 460 2 489 0 487 0 530 -2 19 0 51 -1 70
0 51 1 310 2 345 1 53 -1 149 -18 175 -31 22 -10 33 -9 70 5 50 20 129 24 520
27 195 1 361 -10 485 -33 72 -13 169 -13 173 1 3 6 9 6 17 -1 9 -7 21 -7 39 0
37 14 62 13 79 -4 17 -18 122 -27 137 -12 7 7 14 6 22 -2 7 -7 22 -12 35 -12
14 0 23 -6 23 -16 0 -11 6 -14 22 -9 16 6 20 4 15 -8 -9 -24 11 -25 82 -6 52
14 90 16 181 12 63 -3 147 -6 185 -6 80 -2 89 -6 207 -104 81 -68 122 -130
112 -171 -4 -12 0 -32 8 -44 8 -13 18 -39 22 -58 4 -19 12 -57 18 -85 6 -27
12 -138 13 -245 6 -534 3 -487 28 -494 14 -4 18 -9 11 -13 -8 -6 -10 -36 -7
-93 3 -47 4 -107 2 -135 -2 -27 -2 -69 -2 -92 2 -52 3 -76 3 -128 1 -78 11
-97 66 -116 67 -24 83 -23 140 6 27 14 53 25 58 25 5 0 15 8 22 18 11 14 15
15 23 3 5 -7 13 -11 19 -7 5 3 24 3 41 0 24 -5 30 -11 26 -24 -5 -15 0 -16 46
-9 32 5 59 4 70 -2 15 -7 19 -6 19 6 0 14 17 20 48 16 6 -1 12 6 12 15 0 10 3
14 8 10 4 -4 7 -16 7 -27 0 -20 5 -22 31 -12 23 9 54 -31 54 -68 0 -16 5 -29
11 -29 6 0 9 20 7 53 -2 41 0 52 12 52 9 0 16 -11 18 -27 2 -19 10 -28 25 -30
15 -2 23 -11 25 -28 2 -26 -16 -62 -24 -45 -15 34 -21 37 -43 24 -27 -18 -27
-47 1 -76 l22 -24 31 37 31 36 -2 -153 c0 -85 -3 -158 -4 -164 -2 -5 -1 -24 4
-41 4 -17 2 -43 -4 -58 -7 -20 -6 -34 5 -55 19 -37 18 -186 -2 -203 -11 -9
-12 -13 -1 -20 11 -8 10 -11 -1 -15 -7 -3 -22 -14 -33 -25 -15 -15 -22 -17
-28 -8 -11 17 -33 2 -26 -17 4 -9 2 -21 -4 -28 -8 -9 -5 -14 10 -18 11 -3 20
-12 20 -21 0 -18 -13 -20 -40 -6 -13 7 -31 5 -60 -5 -22 -8 -60 -15 -83 -15
-23 -1 -62 -2 -87 -3 -25 -1 -83 0 -130 1 -129 3 -328 -2 -334 -9 -3 -3 -7
-75 -8 -160 -1 -85 -5 -159 -10 -165 -11 -14 9 -67 21 -59 17 10 22 -32 10
-78 -11 -46 -1 -87 21 -87 6 0 10 -47 10 -114 0 -92 -4 -125 -21 -169 -19 -50
-20 -57 -5 -84 12 -23 13 -38 5 -66 -11 -41 -5 -190 11 -267 9 -42 9 -63 0
-90 -7 -23 -10 -63 -6 -106 4 -51 2 -76 -8 -89 -11 -15 -11 -23 2 -49 20 -40
23 -229 4 -269 -7 -15 -10 -37 -7 -47 3 -10 6 -88 5 -172 -1 -84 -1 -169 -1
-188 0 -73 -1 -236 -2 -265 0 -16 0 -70 1 -120 1 -49 2 -119 2 -155 0 -36 1
-74 1 -85 1 -11 1 -29 1 -40 -1 -11 1 -73 4 -138 3 -65 2 -123 -3 -130 -5 -7
-8 -46 -6 -87 6 -118 7 -131 4 -195 -2 -53 1 -140 7 -227 1 -17 8 -28 17 -28
8 0 15 -4 15 -10 0 -5 -7 -10 -16 -10 -10 0 -14 -6 -10 -15 3 -8 2 -15 -3 -15
-4 0 -8 -6 -9 -12 0 -7 -4 -39 -8 -71 -6 -48 -4 -61 12 -78 11 -12 18 -34 17
-54 -1 -19 3 -35 8 -35 18 0 9 -22 -11 -27 -11 -3 -18 -8 -16 -12 3 -4 1 -26
-5 -49 -6 -26 -5 -50 1 -68 8 -21 7 -31 -5 -44 -17 -19 -11 -70 13 -107 16
-26 48 -29 116 -12 34 8 50 8 79 -4 29 -12 55 -14 135 -7 64 6 129 5 183 -2
46 -6 108 -11 137 -11 56 0 72 -20 30 -37 -13 -5 -17 -9 -9 -9 9 -1 11 -9 7
-25 -7 -29 13 -40 31 -17 11 15 12 15 13 0 0 -9 11 -22 25 -29 27 -14 33 -30
13 -30 -9 -1 -8 -5 3 -13 21 -16 24 -156 4 -204 -10 -25 -11 -40 -4 -63 7 -19
7 -39 1 -57 -5 -18 -5 -38 1 -56 5 -16 6 -52 1 -85 -4 -31 -7 -59 -7 -62 1 -3
4 -39 8 -80 l6 -75 -35 40 -34 39 -21 -24 c-11 -14 -20 -32 -21 -41 0 -19 41
-58 47 -44 2 6 8 17 13 25 9 13 11 13 20 0 18 -28 12 -57 -15 -64 -18 -5 -25
-13 -25 -31 0 -13 -5 -27 -11 -31 -19 -11 -28 17 -22 70 5 36 3 47 -5 42 -7
-4 -12 -20 -12 -35 0 -16 -8 -39 -18 -51 -15 -19 -22 -21 -39 -12 -24 13 -33
7 -33 -25 0 -14 -4 -21 -10 -18 -6 4 -7 11 -4 17 5 7 1 9 -9 5 -10 -3 -17 -2
-17 3 0 5 -7 7 -15 4 -9 -4 -15 -1 -15 7 0 11 -18 14 -69 14 -50 0 -67 -3 -64
-12 6 -15 -44 -36 -65 -28 -8 3 -21 0 -29 -6 -11 -10 -15 -8 -20 9 -3 12 -9
19 -14 17 -4 -3 -31 6 -59 21 -40 21 -60 25 -91 21 -22 -3 -42 -7 -45 -9 -2
-3 -7 -56 -11 -119 -7 -102 -6 -117 11 -147 15 -26 16 -38 7 -60 -6 -16 -9
-63 -6 -116 3 -60 1 -94 -7 -104 -9 -10 -9 -15 1 -21 10 -6 13 -80 14 -320 1
-171 -2 -311 -7 -311 -4 0 -6 -15 -3 -33 4 -17 2 -51 -2 -74 -5 -27 -4 -46 2
-52 8 -8 7 -11 -1 -11 -7 0 -12 -13 -12 -29 0 -36 -44 -158 -70 -193 -11 -15
-20 -31 -20 -37 0 -15 -121 -117 -160 -135 -19 -8 -42 -20 -50 -25 -35 -21
-112 -34 -220 -37 -63 -2 -134 -9 -157 -14 -23 -6 -65 -10 -92 -10 -30 0 -51
-4 -51 -11 0 -8 -106 -9 -371 -5 -349 6 -375 8 -421 28 -47 20 -51 20 -83 5
-26 -13 -41 -14 -63 -6 -28 10 -132 7 -290 -7 -48 -4 -77 -2 -86 5 -7 6 -20 9
-27 7 -38 -13 -128 -14 -152 -1 -19 10 -28 10 -37 1 -10 -10 -220 -14 -310 -6
-14 1 -97 2 -185 2 -88 1 -176 1 -195 1 -19 0 -53 -1 -75 -2 -22 -1 -101 0
-175 2 -74 2 -146 -1 -159 -5 -15 -5 -37 -4 -60 4 -20 7 -40 10 -46 8 -5 -2
-48 -5 -95 -7 -286 -13 -330 -14 -330 -6 0 5 -37 8 -82 5 -46 -2 -108 -2 -138
-1 -55 3 -108 3 -145 1 -144 -9 -267 -2 -301 16 -14 7 -24 8 -31 1 -11 -11
-322 -21 -338 -10 -5 3 -28 6 -49 6 -39 0 -40 1 -44 40 -4 39 -3 39 15 22 23
-20 33 -22 33 -6 0 7 8 18 18 25 16 13 16 13 0 14 -10 0 -18 4 -18 8 0 5 -26
5 -57 0 -87 -14 -93 -18 -55 -33 40 -18 50 -40 27 -65 -15 -17 -31 -20 -102
-20 -46 0 -93 5 -104 10 -13 8 -37 8 -77 0 -58 -10 -142 -12 -289 -7 -50 2
-83 -1 -83 -6 0 -6 -8 -3 -18 6 -25 23 -34 21 -67 -9 -21 -19 -34 -24 -55 -19
-52 11 -210 21 -224 13 -10 -6 -519 -4 -1016 4 -19 0 -64 -3 -100 -6 -81 -8
-165 -7 -194 3 -11 4 -73 8 -136 10 -63 1 -130 7 -148 13 -26 10 -35 10 -41 0
-6 -10 -36 -11 -135 -5 -70 5 -175 5 -233 1 -72 -5 -111 -4 -120 4 -9 7 -13 7
-13 -1 0 -7 -8 -10 -17 -7 -23 7 -355 8 -543 3 -80 -2 -154 -1 -165 3 -11 4
-85 4 -165 0 -113 -6 -152 -5 -184 6 -21 8 -48 11 -59 8 -17 -5 -19 -3 -13 22
4 16 14 35 23 41 9 7 13 16 9 20 -4 4 -11 2 -15 -5 -4 -7 -15 -10 -24 -6 -18
7 -23 24 -7 24 15 0 12 26 -5 40 -12 10 -15 10 -15 -1 0 -8 -16 3 -34 23 l-33
37 -22 -23 c-24 -25 -27 -46 -9 -64 18 -18 26 -14 30 15 2 14 9 29 17 31 8 3
11 0 7 -7 -4 -6 -3 -11 2 -11 11 0 27 -47 23 -69 -1 -7 5 -31 13 -52 20 -49
20 -49 -3 -49 -21 0 -45 25 -37 38 3 6 -1 15 -9 22 -12 10 -15 9 -15 -8 0 -27
-15 -36 -29 -18 -7 9 -9 29 -5 55 4 28 3 41 -5 41 -6 0 -11 -13 -11 -29 0 -16
-8 -39 -18 -51 -16 -19 -22 -21 -40 -11 -20 11 -22 9 -22 -19 0 -16 -4 -30
-10 -30 -5 0 -10 7 -10 15 0 9 -6 15 -12 14 -31 -4 -48 2 -48 16 0 11 -5 12
-23 6 -13 -5 -42 -6 -65 -1 -40 7 -46 5 -43 -12 2 -14 -41 -30 -64 -24 -14 4
-25 1 -29 -7 -3 -9 -8 -8 -18 3 -18 21 -119 70 -144 70 -26 0 -94 -23 -154
-53 -45 -22 -112 -27 -240 -16 -25 1 -81 2 -125 2 -44 -1 -91 -1 -105 -1 -14
1 -76 -1 -138 -2 -61 -2 -114 -1 -117 1 -2 3 -35 2 -72 -2 -37 -4 -142 -5
-233 -3 -140 4 -171 2 -202 -12 -34 -15 -40 -15 -69 -1 -27 13 -36 13 -63 2
-19 -8 -38 -10 -46 -5 -7 4 -28 6 -47 3 -20 -3 -39 0 -49 8 -12 10 -17 10 -23
0 -12 -19 -380 -19 -392 0 -6 10 -9 10 -9 2 0 -16 -164 -18 -287 -3 -67 7 -90
6 -119 -6 -56 -23 -339 -15 -315 9 23 23 10 29 -15 6 -26 -24 -26 -24 -221
-21 -136 1 -201 6 -211 14 -12 11 -256 20 -432 17 -159 -2 -342 5 -358 15 -6
4 -26 0 -45 -7 -28 -12 -42 -12 -98 0 -66 14 -141 16 -314 8 -169 -8 -378 -6
-425 5 -25 5 -97 12 -160 14 -129 5 -202 20 -260 55 -8 5 -26 14 -40 20 -38
18 -132 112 -161 162 -33 55 -73 175 -65 195 3 8 -1 17 -9 21 -11 4 -13 9 -5
18 7 9 7 27 0 60 -6 26 -9 49 -8 50 2 1 14 9 28 18 23 16 23 17 3 17 -11 0
-26 6 -32 14 -10 12 -8 17 8 26 20 10 20 12 5 35 -15 24 -15 25 4 25 17 0 18
4 11 40 -5 22 -13 59 -18 81 -9 44 -3 120 10 129 5 3 8 46 8 95 0 50 1 155 1
235 3 357 0 434 -19 452 -13 12 -22 13 -29 6 -10 -10 -131 -16 -357 -18 -148
-2 -175 3 -204 38 -29 34 -60 43 -84 24 -11 -10 -17 -10 -22 -1 -4 6 -2 15 6
19 10 7 8 13 -9 27 -18 14 -25 35 -33 93 -5 41 -10 84 -10 95 0 11 3 115 5
230 3 116 6 219 6 230 0 11 -3 43 -6 71 -4 37 -1 60 10 83 18 33 36 41 36 15
0 -9 7 -14 18 -12 9 2 16 11 15 19 -3 14 53 43 84 44 20 0 28 16 13 26 -13 8
-12 11 5 21 13 8 84 13 215 14 107 1 228 2 268 3 l72 1 0 38 c0 20 -1 102 -2
182 -3 119 -2 674 1 953 0 38 -4 91 -9 118 -8 39 -6 57 4 77 8 15 12 39 9 53
-2 14 3 43 11 64 16 38 14 97 -5 121 -5 6 -12 141 -15 300 -7 363 -6 421 7
462 6 19 8 53 5 76 -4 24 -2 55 5 72 22 59 29 236 9 242 -9 3 -9 6 1 12 10 7
10 16 0 49 -8 27 -9 47 -3 58 7 11 5 29 -3 54 -18 50 -19 230 -2 564 0 17 0
80 -2 140 -1 61 -1 135 0 165 1 30 2 80 0 110 -1 30 -1 67 -1 83 1 39 1 192 0
225 0 15 -1 51 0 79 l0 53 -97 -1 c-54 0 -136 -1 -183 -2 -166 -3 -269 5 -312
22 -19 7 -36 7 -54 0 -32 -11 -38 -7 -29 20 4 14 11 18 23 14 14 -6 15 -4 4 9
-7 8 -10 22 -6 31 7 19 -15 34 -26 17 -6 -9 -13 -7 -28 8 -11 11 -26 22 -33
25 -11 4 -12 7 -1 15 11 7 10 11 -1 20 -20 17 -21 166 -1 204 13 25 13 35 3
59 -9 23 -9 36 0 55 6 14 8 31 4 37 -3 6 -7 80 -8 165 l-1 155 32 -36 31 -37
21 23 c12 13 22 30 22 39 0 18 -41 57 -47 43 -2 -5 -8 -17 -13 -25 -9 -13 -11
-13 -20 0 -17 26 -8 65 17 68 15 2 23 11 25 30 2 16 9 27 18 27 12 0 14 -11
12 -52 -2 -33 1 -53 7 -53 6 0 11 13 11 29 0 16 9 39 19 52 17 21 22 22 41 11
17 -10 21 -10 26 1 3 8 4 18 2 23 -2 5 2 9 7 9 6 0 9 -4 7 -8 -1 -4 3 -7 10
-6 31 4 48 -2 48 -16 0 -12 4 -13 19 -6 11 6 38 7 70 2 46 -7 51 -6 46 9 -4
13 2 19 25 23 16 4 37 4 45 1 8 -4 15 -1 15 5 0 19 22 12 27 -9 3 -11 9 -17
14 -14 5 3 34 -7 64 -21 42 -21 63 -26 89 -21 48 9 56 39 47 167 -5 57 -6 131
-4 164 2 33 5 183 7 333 3 235 2 272 -11 272 -11 0 -13 5 -7 18 5 9 8 39 7 65
-1 39 1 46 11 37 19 -15 27 10 16 47 -4 15 -13 44 -19 63 -6 21 -8 84 -4 160
3 69 6 154 7 190 1 71 4 76 105 203 58 72 115 110 159 106 15 -2 38 3 52 11
14 7 34 15 45 17 11 1 49 10 85 20 51 13 117 16 307 17 133 1 245 5 249 9 4 4
20 5 34 3 14 -3 196 -8 404 -11z"/>
<path d="M3113 12884 c-7 -7 -13 -28 -13 -46 0 -18 -6 -45 -14 -60 -10 -18
-11 -29 -3 -37 6 -6 12 -80 14 -183 2 -102 7 -174 13 -176 15 -5 12 -22 -3
-22 -15 0 -18 -12 -19 -82 0 -27 -4 -48 -8 -48 -4 0 -10 -14 -12 -30 -3 -23
-1 -30 9 -26 16 7 35 -28 31 -57 -1 -12 1 -27 5 -34 4 -6 3 -14 -2 -17 -5 -4
-24 -36 -42 -73 -30 -62 -32 -69 -20 -111 6 -24 23 -69 37 -99 35 -73 45 -153
28 -217 -8 -28 -12 -62 -9 -76 3 -14 5 -59 5 -100 0 -41 0 -108 1 -147 0 -40
-4 -73 -8 -73 -5 0 -23 4 -42 10 -37 10 -81 4 -81 -12 0 -6 14 -8 35 -5 26 4
35 2 35 -9 0 -17 5 -17 30 -4 13 7 21 7 26 -2 9 -14 12 -108 3 -108 -3 0 -2
-28 2 -62 5 -35 6 -141 4 -237 -4 -144 -2 -178 11 -204 14 -25 14 -36 4 -68
-9 -26 -10 -46 -3 -66 6 -15 7 -37 3 -48 -4 -11 -5 -35 -2 -54 3 -22 0 -36 -9
-42 -10 -7 -11 -11 -2 -16 14 -10 23 -260 13 -348 -4 -33 -3 -65 2 -72 9 -11
11 -141 7 -363 -1 -58 -2 -166 -3 -240 -1 -114 -5 -143 -24 -187 -19 -48 -20
-55 -7 -86 10 -25 12 -43 5 -69 -12 -42 -7 -180 10 -261 8 -42 8 -67 0 -91 -5
-18 -8 -64 -6 -102 3 -45 0 -79 -8 -95 -10 -20 -10 -28 3 -48 19 -29 23 -232
6 -271 -7 -16 -9 -60 -5 -125 3 -55 3 -142 0 -194 -4 -53 -3 -113 1 -134 4
-22 3 -80 -1 -129 -4 -48 -3 -132 1 -185 5 -53 4 -103 -1 -112 -4 -9 -6 -43
-3 -76 5 -59 8 -318 5 -465 -1 -41 -1 -91 0 -110 1 -19 0 -64 -1 -100 -1 -36
1 -103 3 -150 3 -47 5 -89 6 -95 0 -5 -5 -39 -10 -75 -6 -36 -10 -72 -10 -80
2 -135 10 -311 14 -318 3 -5 -1 -18 -9 -28 -9 -12 -12 -32 -8 -55 5 -34 3 -36
-28 -43 -37 -7 -48 -1 -31 16 15 15 16 42 2 33 -6 -3 -13 1 -16 9 -3 9 -10 16
-16 16 -5 0 -7 -4 -4 -9 4 -5 1 -11 -5 -13 -8 -3 -9 -25 -4 -71 8 -69 19 -84
34 -44 5 13 16 29 25 36 14 11 19 10 36 -10 21 -25 21 -18 10 -234 -1 -11 2
-49 5 -85 4 -36 7 -114 8 -175 l2 -109 34 -7 c18 -4 121 -5 227 -3 172 3 194
2 194 -12 0 -12 6 -15 23 -9 12 4 36 6 52 5 17 -1 40 -2 53 -2 12 1 36 1 52 1
58 -1 106 1 183 7 72 5 78 4 85 -16 8 -21 8 -21 20 4 8 18 19 26 37 26 30 0
33 -20 5 -45 -16 -15 -17 -19 -5 -31 18 -18 33 -17 74 5 21 11 30 21 22 25
-38 24 18 56 96 56 58 0 89 -16 72 -36 -6 -8 -10 -16 -8 -18 15 -12 67 -22 84
-16 11 4 32 6 47 3 14 -3 43 0 63 7 32 11 38 10 49 -6 13 -17 15 -17 30 -1 13
12 28 16 57 12 21 -3 57 -7 79 -10 23 -3 50 -1 60 5 13 7 26 7 36 2 10 -6 30
-4 53 4 45 16 191 19 191 3 0 -7 11 -9 33 -4 17 4 52 6 76 6 24 -1 60 3 80 9
30 8 38 7 49 -7 8 -11 12 -12 12 -4 0 9 9 12 27 8 14 -3 43 1 64 8 34 12 131
18 239 14 25 -1 59 0 75 1 17 1 75 -1 130 -5 55 -4 150 -6 210 -4 92 3 220 2
260 -1 11 0 340 -1 370 0 287 8 695 8 700 0 4 -7 13 -7 24 -1 21 12 14 11 196
17 188 5 184 5 205 -6 12 -6 54 -6 122 0 103 10 228 2 278 -18 14 -5 34 -6 45
-1 31 12 45 10 45 -6 0 -9 -10 -19 -22 -24 -18 -7 -19 -8 -4 -14 12 -5 22 3
36 25 16 27 26 32 67 35 83 7 132 4 154 -7 16 -9 24 -8 39 5 13 11 20 13 25 5
4 -6 14 -9 23 -5 21 8 308 7 357 -1 22 -4 49 -6 60 -5 11 1 65 4 121 7 89 5
103 3 125 -14 23 -20 23 -20 5 -41 -10 -11 -27 -23 -37 -26 -35 -12 -19 -21
51 -31 56 -8 71 -7 75 4 3 7 11 10 17 7 7 -4 5 0 -4 8 -10 8 -18 22 -18 32 0
16 -3 16 -26 -6 l-25 -24 3 40 c3 39 4 40 43 40 22 0 50 5 61 12 12 7 24 10
27 6 3 -3 75 -7 159 -9 84 -3 162 -5 173 -5 11 0 56 4 100 10 47 6 101 7 132
2 29 -4 58 -4 67 1 9 5 30 5 51 -1 23 -6 59 -6 102 0 43 6 85 6 118 0 51 -10
126 -8 158 4 9 4 70 5 135 1 64 -3 128 -5 142 -5 14 1 32 1 40 0 16 -1 141 -1
198 0 17 1 100 1 182 1 83 0 162 0 178 1 15 0 47 -1 72 -3 91 -6 335 2 353 11
12 7 22 6 33 -6 19 -18 14 -18 57 0 28 12 38 12 44 2 4 -6 28 -12 53 -13 165
-3 578 -5 620 -4 164 5 340 3 340 -4 0 -5 6 -4 13 2 11 9 186 9 204 0 4 -3 64
-1 132 5 94 7 125 6 131 -3 6 -9 16 -10 41 -2 19 6 84 13 144 16 61 2 139 9
174 15 36 5 69 7 74 4 9 -5 109 -15 152 -14 11 0 97 2 190 4 182 5 456 8 780
8 110 -1 214 0 230 0 47 0 149 -17 173 -30 22 -11 54 -8 103 11 15 5 87 11
160 13 74 2 154 5 179 6 25 2 68 -1 95 -5 28 -4 77 -3 110 2 38 6 93 6 150 0
50 -5 119 -11 155 -13 36 -1 92 -8 125 -15 90 -17 170 -16 182 3 3 5 9 4 12
-2 5 -7 18 -7 45 0 27 7 46 8 62 1 12 -6 31 -8 43 -5 17 4 21 13 22 47 0 22 3
68 5 101 11 136 1 724 -12 733 -6 4 -17 18 -24 31 -11 22 -11 23 14 19 33 -7
36 4 16 78 -14 50 -15 86 -10 195 4 74 4 143 0 154 -4 11 -6 83 -3 160 3 77 4
214 3 305 -6 457 -4 710 5 713 6 2 5 18 -3 43 -14 47 -26 239 -23 389 1 61 1
142 0 180 -1 80 -2 915 -1 1018 1 37 -3 88 -7 114 -6 32 -5 55 4 77 7 17 11
43 8 57 -2 14 2 43 11 63 13 31 14 46 5 79 -15 56 -30 360 -23 472 3 50 1 110
-3 135 -5 24 -4 80 1 125 5 44 10 109 12 145 1 36 6 91 10 123 5 49 4 56 -9
51 -16 -6 -50 33 -41 47 2 4 19 3 37 -2 17 -5 33 -9 34 -9 2 0 3 9 3 20 0 13
-7 20 -19 20 -29 0 -36 59 -34 280 1 63 2 189 3 280 1 91 1 179 0 195 -6 133
-3 331 4 337 6 4 5 12 -2 20 -8 10 -9 44 -4 116 4 56 4 152 -1 214 -6 80 -5
119 4 134 8 15 8 27 1 40 -6 11 -11 64 -13 119 -3 140 -18 220 -43 231 -11 5
-22 15 -24 22 -3 11 0 12 16 3 25 -13 31 6 28 104 -2 44 3 78 11 93 8 13 9 22
3 22 -5 0 -10 11 -10 24 0 13 -8 27 -17 31 -10 3 -143 8 -297 11 -254 4 -284
7 -327 26 -35 14 -56 18 -76 12 -16 -4 -89 -8 -163 -9 -74 -1 -165 -5 -203
-10 -44 -5 -72 -4 -80 4 -9 7 -31 8 -64 2 -57 -9 -111 -4 -130 11 -9 7 -18 6
-30 -3 -12 -10 -50 -14 -147 -13 -100 0 -494 3 -626 4 -8 0 -80 2 -159 4 -80
2 -155 0 -168 -5 -17 -6 -35 -4 -60 6 -19 8 -40 12 -46 8 -6 -3 -43 -8 -81
-10 -39 -2 -114 -8 -166 -13 -52 -5 -104 -7 -115 -3 -25 8 -52 8 -90 0 -16 -4
-82 -2 -145 4 -63 6 -124 10 -135 10 -11 0 -81 -2 -155 -4 -74 -3 -139 -1
-145 3 -5 4 -35 4 -65 0 -30 -4 -118 -5 -195 -3 -77 2 -147 3 -155 3 -153 -7
-234 -8 -440 -8 -135 1 -254 0 -265 -1 -11 0 -78 -3 -150 -5 -71 -2 -150 -6
-175 -10 -33 -6 -57 -3 -87 9 -38 15 -44 15 -72 0 -18 -9 -36 -13 -41 -10 -12
7 -1092 19 -1345 15 -148 -3 -330 8 -383 22 -35 9 -46 8 -52 -2 -6 -10 -22
-11 -67 -5 -78 10 -222 12 -308 3 -57 -6 -72 -4 -87 9 -14 13 -18 13 -18 2 0
-12 -26 -13 -147 -11 -82 1 -160 7 -174 11 -15 5 -32 5 -40 0 -8 -5 -48 -9
-89 -9 -41 0 -111 0 -155 0 -44 0 -112 0 -152 1 -51 1 -79 -4 -95 -15 -28 -20
-42 -20 -35 -1 5 12 -12 14 -111 12 -64 -1 -120 -6 -124 -12 -5 -7 -14 -6 -27
2 -11 7 -50 12 -88 12 -37 -1 -142 0 -233 0 -91 1 -178 1 -195 1 -173 -6 -345
-4 -345 4 0 4 -6 4 -12 -2 -10 -8 -184 -9 -208 -1 -10 3 -127 -3 -188 -10 -51
-6 -65 -5 -72 8 -7 13 -12 13 -37 1 -17 -8 -70 -14 -138 -15 -60 -1 -142 -8
-182 -14 -46 -8 -78 -9 -90 -3 -10 6 -135 8 -298 7 -307 -4 -594 -6 -637 -6
-16 1 -40 0 -55 0 -16 0 -91 0 -168 0 -77 0 -156 0 -175 0 -57 0 -153 16 -178
30 -20 11 -32 10 -75 -4 -56 -19 -317 -32 -487 -24 -30 1 -102 1 -160 0 -110
-2 -254 10 -355 29 -76 15 -167 13 -177 -3 -6 -9 -10 -9 -17 2 -8 12 -14 12
-40 1 -32 -13 -81 -7 -81 10 0 18 -45 10 -58 -10 -7 -11 -18 -20 -24 -20 -9 0
-9 3 0 12 29 29 -11 51 -45 25 -9 -6 -18 -5 -28 3 -10 8 -30 10 -60 6 -24 -4
-52 -3 -62 2 -13 7 -22 6 -30 -4z m11142 -929 c66 -3 129 -5 140 -5 27 -1 495
-2 520 -1 11 0 58 2 105 3 78 3 85 1 83 -16 -1 -13 2 -15 10 -7 6 6 19 11 29
11 10 0 18 5 18 11 0 16 293 6 335 -11 33 -13 49 -17 110 -26 22 -3 51 -16 65
-28 14 -13 41 -32 60 -44 22 -13 52 -48 80 -94 45 -72 45 -74 44 -158 -1 -47
-4 -125 -8 -175 -3 -49 -6 -137 -5 -195 0 -108 0 -185 0 -280 0 -30 0 -64 1
-75 0 -11 0 -45 -1 -75 0 -30 -1 -66 -1 -80 0 -111 -11 -206 -26 -217 -10 -7
-14 -19 -9 -32 5 -18 2 -21 -20 -21 -14 0 -46 5 -71 11 -34 9 -47 9 -59 -1
-21 -17 -127 -23 -217 -12 -43 6 -116 6 -176 1 -87 -8 -106 -7 -127 7 -13 9
-29 13 -34 10 -5 -4 -12 -2 -16 4 -3 5 -17 10 -31 10 -23 0 -24 3 -24 55 0 52
1 55 19 45 31 -16 61 -12 61 8 0 13 -7 18 -22 18 -16 -1 -23 4 -22 17 1 9 -2
17 -6 17 -14 0 -28 54 -19 77 5 13 3 60 -3 107 -8 62 -9 92 -1 109 9 20 8 28
-5 41 -12 12 -14 19 -6 24 38 24 20 112 -23 112 -21 0 -23 3 -17 23 6 21 6 21
-14 -3 -19 -22 -21 -23 -22 -6 0 16 -2 17 -17 5 -15 -12 -16 -12 -10 4 6 15 2
16 -36 11 -23 -4 -46 -10 -52 -14 -13 -10 -233 -13 -301 -5 -60 8 -130 -8
-142 -33 -14 -26 -22 -92 -11 -92 5 0 9 -13 9 -30 0 -16 7 -48 16 -70 13 -32
15 -56 9 -103 -9 -74 -9 -51 -1 -267 11 -342 9 -459 -9 -487 -15 -22 -15 -26
-1 -42 9 -10 18 -31 21 -47 5 -29 17 -342 15 -379 -1 -11 0 -65 1 -120 1 -55
2 -118 2 -140 0 -22 -4 -67 -9 -100 -5 -33 -7 -80 -3 -105 3 -25 3 -54 -1 -64
-3 -10 0 -38 9 -62 12 -34 13 -52 5 -91 -6 -26 -9 -93 -7 -148 8 -185 8 -239
0 -450 -1 -27 -1 -121 0 -207 0 -87 -3 -158 -8 -158 -13 0 -11 -58 2 -83 15
-27 13 -470 -1 -497 -7 -13 -6 -28 1 -47 6 -15 10 -66 9 -113 -1 -47 -1 -121
-1 -165 1 -64 -2 -83 -16 -92 -14 -11 -14 -17 -4 -39 16 -37 4 -93 -31 -132
-16 -19 -27 -39 -25 -45 2 -7 30 -15 62 -19 32 -4 62 -12 65 -18 4 -7 23 -8
49 -4 28 4 45 3 50 -4 11 -17 112 1 128 24 12 17 13 17 13 -4 0 -26 15 -29 30
-4 9 15 10 14 8 -8 -2 -20 1 -24 17 -21 11 2 44 5 74 8 51 5 54 4 48 -17 -4
-15 -2 -20 8 -17 7 3 18 0 25 -6 9 -9 11 -4 8 23 -2 29 0 35 17 35 21 0 28 24
39 144 3 29 11 60 17 67 9 11 6 14 -20 14 -28 0 -31 3 -31 30 0 17 4 30 10 30
5 0 2 19 -6 42 -8 24 -11 44 -7 45 4 2 7 31 5 66 -3 56 -4 117 -2 180 0 12 -3
72 -6 132 -10 172 -6 308 11 321 12 9 11 20 -7 72 -21 60 -21 64 -5 144 13 68
14 98 5 158 -6 41 -10 82 -10 90 1 49 1 149 1 175 -1 17 0 53 1 81 3 68 -27
164 -51 164 -10 0 -21 -4 -24 -10 -3 -5 -10 -10 -16 -10 -14 0 -11 28 4 33 6
3 2 6 -10 6 -12 1 -28 7 -35 15 -8 7 -25 17 -38 21 -14 4 -30 11 -36 16 -12
10 -13 157 -1 176 4 6 3 14 -3 18 -6 4 -7 65 -4 168 8 220 8 230 17 244 4 7 3
21 -2 32 -16 29 38 155 67 159 16 2 23 -3 27 -21 l7 -25 25 26 c23 22 30 24
89 19 35 -2 67 -1 70 4 9 15 64 11 64 -5 0 -24 15 -26 51 -8 28 15 57 18 166
16 72 -1 141 -5 152 -9 12 -3 26 -3 33 2 7 4 67 8 133 8 66 1 135 4 152 9 32
7 33 7 27 -22 -4 -17 -1 -32 5 -36 6 -4 11 -16 11 -26 0 -11 12 -30 26 -43 24
-23 26 -30 25 -113 -1 -49 -1 -98 0 -109 1 -11 1 -36 0 -55 -2 -19 -3 -51 -3
-70 0 -19 0 -143 0 -275 0 -132 0 -269 -1 -305 0 -36 0 -202 1 -370 1 -168 2
-395 1 -505 -1 -110 -1 -243 -1 -295 2 -145 -8 -253 -24 -271 -13 -14 -12 -22
6 -65 18 -41 21 -66 19 -159 -1 -60 1 -125 5 -142 8 -30 6 -34 -19 -43 -27
-10 -27 -11 -9 -25 17 -12 19 -28 19 -184 0 -123 -3 -173 -12 -183 -7 -6 -13
-29 -13 -51 0 -61 -43 -126 -163 -247 -36 -36 -95 -70 -111 -64 -8 3 -17 1
-21 -5 -3 -6 -16 -11 -28 -11 -13 0 -31 -6 -42 -14 -53 -36 -322 -51 -357 -19
-12 10 -22 13 -30 6 -7 -5 -47 -10 -88 -11 -41 -2 -93 -7 -116 -12 -32 -7 -49
-6 -73 6 -25 13 -38 13 -66 4 -19 -6 -41 -10 -48 -7 -6 2 -23 0 -36 -5 -16 -6
-31 -4 -45 5 -15 9 -58 12 -161 10 -77 -2 -151 -4 -165 -3 -14 0 -79 0 -145
-1 -208 -1 -268 3 -308 19 -16 7 -33 10 -37 7 -5 -3 -26 5 -47 18 -21 13 -47
27 -58 31 -28 9 -145 121 -145 139 0 8 -16 34 -35 58 -50 59 -57 76 -50 111 4
17 2 40 -3 52 -23 47 -33 131 -18 155 5 7 1 20 -8 30 -13 15 -14 23 -5 50 8
21 9 57 4 100 -6 60 -7 156 -3 301 1 30 1 75 -1 100 -1 25 1 97 4 160 3 63 6
124 5 135 0 11 -3 65 -6 120 -3 55 -5 136 -4 180 2 89 1 312 -1 510 0 72 2
153 6 181 4 28 2 67 -3 87 -6 20 -7 39 -2 42 4 3 10 19 13 37 3 18 10 52 15
76 6 28 6 70 -1 120 -5 42 -11 133 -11 202 -1 69 -5 130 -9 137 -5 7 1 16 14
23 16 9 19 18 15 36 -4 13 -2 24 4 24 18 0 22 48 9 100 -7 28 -19 50 -26 50
-7 0 -13 5 -13 10 0 6 6 10 13 10 10 0 14 17 14 60 1 33 -3 60 -8 60 -15 0
-10 30 7 37 12 4 14 16 8 60 -3 29 -7 66 -9 81 -1 15 -5 40 -10 56 -5 20 -4
31 6 37 8 5 9 9 3 9 -17 0 -32 101 -23 153 1 6 -1 27 -5 45 -7 28 -5 32 13 32
12 0 21 3 21 8 0 4 3 18 6 32 6 24 6 24 -9 5 -8 -11 -18 -17 -21 -14 -5 4 -6
107 -4 259 0 44 -10 325 -12 325 -1 0 -3 35 -5 79 -2 43 -9 99 -15 125 -8 34
-8 112 1 296 6 138 13 268 15 290 2 22 7 81 9 130 11 212 35 287 117 377 24
25 60 66 80 91 23 27 48 46 66 50 16 3 47 18 68 32 30 21 48 25 93 23 31 -1
64 2 73 8 16 9 72 9 303 -1z m-6831 -26 c43 -16 60 -18 76 -9 13 7 26 7 38 1
21 -11 34 -13 102 -13 24 0 46 5 48 11 2 6 15 11 28 11 17 0 24 -6 24 -20 0
-11 7 -20 15 -20 23 0 75 29 75 42 0 7 15 9 43 5 25 -4 48 -2 54 4 7 7 17 4
32 -12 16 -17 31 -22 56 -21 30 2 35 0 35 -20 1 -22 1 -22 21 5 17 22 28 27
64 27 26 0 50 -6 59 -16 9 -8 21 -12 26 -9 14 9 40 -13 40 -33 0 -19 -64 -10
-89 12 -18 17 -93 16 -98 -1 -2 -5 8 -20 22 -33 19 -18 27 -21 39 -11 18 15
33 -4 17 -23 -6 -7 -8 -16 -4 -19 3 -4 12 2 20 13 14 20 70 29 58 10 -3 -5 0
-31 8 -57 9 -35 11 -82 7 -173 -4 -69 -4 -134 1 -145 4 -12 5 -52 3 -90 -7
-112 -5 -545 2 -557 4 -6 1 -14 -7 -18 -9 -6 -10 -12 -1 -22 7 -9 8 -38 3 -92
-7 -80 -7 -106 4 -265 4 -65 3 -91 -4 -86 -14 8 -14 -13 -1 -51 12 -37 23
-238 21 -369 -2 -55 -1 -163 1 -240 1 -77 2 -284 2 -460 -1 -176 -1 -369 -1
-430 0 -234 -4 -300 -21 -332 -9 -17 -10 -32 -1 -65 31 -118 30 -795 -2 -973
-16 -90 -14 -197 6 -262 5 -14 0 -28 -14 -42 -21 -21 -19 -46 5 -55 8 -3 14
-13 14 -23 0 -13 -3 -14 -12 -5 -21 21 -28 13 -27 -30 1 -50 1 -105 0 -133 -2
-76 0 -90 11 -96 7 -4 36 -28 63 -53 36 -33 55 -44 70 -39 11 3 20 6 20 7 0
14 27 41 43 41 11 0 29 8 39 17 16 15 30 16 112 8 61 -7 99 -7 111 0 26 14 37
13 44 -6 8 -21 -11 -44 -35 -44 -11 0 -19 -2 -19 -4 0 -2 -3 -11 -6 -20 -9
-24 41 -21 78 5 16 12 32 19 35 16 3 -3 -4 -12 -16 -19 -21 -13 -28 -42 -12
-52 4 -3 16 3 26 14 10 11 26 20 35 20 28 0 56 51 65 120 9 72 16 259 14 393
0 48 3 87 9 87 11 0 8 324 -3 381 -5 30 -3 39 11 47 17 10 17 11 -5 30 -16 12
-22 25 -18 35 8 21 31 22 47 3 13 -17 40 -10 40 9 0 7 -7 29 -15 50 -14 31
-18 35 -32 24 -26 -22 -43 15 -43 92 0 67 11 92 33 70 8 -8 14 -3 23 18 12 29
5 156 -11 181 -4 6 1 17 11 25 15 10 16 16 6 28 -9 10 -11 50 -9 133 2 81 -1
131 -10 157 -17 48 -14 164 3 171 10 4 10 14 3 38 -5 18 -9 55 -10 83 0 27 -4
59 -9 70 -5 13 -3 26 8 38 8 9 10 17 4 17 -6 0 -10 15 -10 33 0 17 -5 76 -12
129 -8 67 -8 108 -1 133 7 25 7 44 0 59 -7 16 -7 62 0 147 6 68 11 129 10 134
0 6 -3 134 -5 285 -3 151 -5 284 -6 295 0 41 7 95 14 95 4 0 1 14 -6 32 -8 18
-11 41 -7 53 4 11 6 40 4 65 -5 51 -5 176 -4 400 1 85 -3 235 -8 334 -7 121
-7 184 0 197 7 13 7 54 0 126 -6 69 -6 114 0 131 6 15 7 37 4 50 -3 13 1 45
10 72 11 34 13 54 6 73 -7 18 -7 28 0 33 14 8 40 -16 32 -30 -4 -6 0 -6 9 2 8
7 22 10 31 6 8 -3 18 -1 22 5 3 6 1 11 -4 11 -6 0 -11 7 -11 17 0 9 3 13 7 10
3 -4 15 8 26 26 18 29 21 30 27 13 6 -17 7 -17 13 -3 5 14 20 16 99 12 176 -8
423 -11 486 -5 34 3 62 3 62 -1 0 -5 -16 -20 -35 -35 l-35 -26 24 -19 c31 -24
63 -24 76 0 14 27 13 31 -10 31 -26 0 -26 12 0 28 23 14 62 0 57 -20 -1 -6 13
-15 31 -20 50 -13 34 -33 -26 -33 -29 1 -52 -3 -52 -7 0 -4 9 -8 20 -8 37 0
82 -29 75 -48 -12 -31 -10 -36 12 -36 13 -1 22 -5 20 -11 -1 -5 -5 -9 -9 -7
-7 2 -12 -21 -9 -40 0 -5 -5 -8 -11 -8 -9 0 -13 -21 -13 -70 0 -56 3 -69 15
-67 21 3 33 -93 14 -109 -8 -6 -11 -14 -8 -17 3 -3 -2 -17 -11 -30 -16 -25
-16 -25 6 -20 16 4 20 2 17 -8 -3 -8 -15 -14 -26 -13 -17 0 -23 -7 -28 -32 -7
-37 7 -86 44 -159 21 -41 26 -62 24 -120 -3 -111 -5 -596 -3 -755 1 -80 1
-178 -1 -218 -2 -39 0 -72 4 -72 14 0 21 -72 8 -95 -7 -13 -9 -28 -5 -34 3 -7
8 -42 10 -79 2 -50 -1 -71 -12 -84 -10 -11 -12 -18 -5 -18 8 0 12 -24 12 -69
0 -38 5 -82 10 -96 7 -18 7 -33 0 -46 -7 -12 -7 -26 -2 -36 6 -11 5 -41 -3
-78 -8 -37 -9 -69 -4 -83 9 -23 4 -226 -7 -294 -3 -21 -1 -52 5 -70 9 -28 15
-118 11 -180 0 -10 -1 -38 -1 -63 0 -64 -1 -75 -10 -75 -4 0 -9 6 -12 13 -2 6
-8 9 -12 4 -5 -4 -1 -13 7 -20 21 -15 37 -96 26 -126 -4 -12 -4 -30 1 -39 5
-10 5 -43 0 -77 -5 -33 -8 -83 -7 -112 1 -29 -3 -58 -9 -65 -7 -8 -11 -74 -10
-183 2 -118 -2 -176 -10 -193 -9 -17 -10 -29 -2 -43 10 -20 5 -322 -7 -341 -3
-5 -1 -22 6 -37 9 -22 8 -52 -4 -137 -9 -71 -12 -124 -6 -153 4 -24 4 -58 -1
-76 -6 -21 -6 -51 1 -80 9 -40 12 -91 10 -195 -1 -49 -8 -151 -14 -185 -3 -22
-8 -87 -11 -145 -4 -101 -17 -178 -36 -210 -5 -8 -18 -33 -28 -55 -20 -44
-116 -155 -134 -155 -6 0 -18 -7 -27 -15 -24 -21 -146 -65 -181 -65 -16 0 -29
-3 -29 -7 0 -5 -30 -8 -66 -8 -53 0 -68 4 -80 19 -10 14 -14 16 -14 5 0 -8 -5
-21 -10 -29 -9 -13 -14 -11 -33 12 l-22 27 -60 -17 c-57 -15 -147 -19 -275
-11 -30 2 -67 0 -82 -4 -23 -6 -25 -4 -21 13 6 23 4 23 -52 10 -38 -8 -139
-17 -293 -25 -40 -3 -77 -7 -82 -10 -5 -3 -12 0 -15 6 -7 10 -64 8 -182 -7
-37 -5 -42 -3 -36 12 7 19 -11 18 -110 -10 -43 -12 -63 -13 -78 -5 -14 7 -30
7 -53 -1 -24 -8 -41 -8 -62 0 -15 6 -39 9 -51 5 -13 -3 -33 -1 -44 5 -15 8
-29 8 -51 1 -39 -14 -80 7 -189 97 -79 65 -117 122 -106 162 3 12 -1 33 -8 48
-7 15 -18 45 -23 67 -6 22 -16 63 -23 90 -8 28 -13 77 -13 110 1 62 2 259 2
500 0 77 0 151 0 165 2 63 3 237 2 356 -1 110 3 141 20 185 23 61 25 90 9 106
-8 8 -9 30 -2 75 12 77 10 160 -6 213 -13 49 -14 100 -1 124 5 11 6 39 2 67
-9 55 0 116 18 122 7 3 5 11 -7 24 -20 23 -20 -29 -8 698 3 239 5 458 4 485
-4 76 -4 383 -1 440 2 28 1 136 -2 240 -3 105 -6 199 -6 210 -1 32 15 134 23
141 3 4 2 15 -4 26 -14 25 -11 389 3 403 2 3 19 8 37 11 l33 7 -17 -27 c-15
-22 -15 -26 -2 -26 8 0 18 -6 20 -12 4 -10 8 -9 16 2 13 19 6 133 -8 138 -6 2
-11 -1 -11 -6 0 -5 -10 -21 -21 -36 -21 -26 -22 -26 -41 -9 -18 16 -20 30 -19
138 1 66 0 209 -1 318 -2 143 0 201 9 208 9 8 8 19 -4 47 -10 25 -13 49 -8 77
4 22 7 52 6 67 0 18 8 32 27 44 15 9 31 23 35 31 10 16 6 17 71 -8z m3461 11
c10 4 37 3 60 -2 22 -6 77 -8 123 -5 45 3 84 1 87 -4 3 -4 19 -3 36 3 23 8 41
7 67 -1 44 -15 182 -8 192 9 5 9 9 9 14 1 4 -6 36 -11 74 -10 37 0 76 0 87 -1
11 0 69 3 128 7 60 4 111 6 113 4 2 -2 66 -5 141 -7 101 -1 148 -6 176 -18 20
-9 37 -12 37 -7 0 5 28 12 63 16 34 3 77 10 95 15 28 7 35 5 49 -16 12 -19 18
-22 24 -12 5 8 28 12 63 12 42 -1 65 -8 105 -33 28 -17 57 -31 64 -31 16 0 76
-62 110 -114 20 -30 24 -44 16 -57 -7 -13 -6 -26 3 -41 14 -25 14 -61 9 -733
-2 -203 -7 -380 -12 -393 -6 -15 -4 -30 3 -42 10 -16 9 -32 -9 -87 -12 -38
-25 -83 -28 -100 -4 -18 -11 -33 -16 -33 -5 0 -4 -9 3 -19 6 -10 18 -17 25
-14 7 3 13 -2 13 -10 0 -8 -5 -17 -11 -19 -8 -3 -7 -14 5 -35 11 -22 12 -34 5
-38 -6 -4 -8 -13 -5 -21 3 -8 2 -14 -2 -14 -15 0 -5 -204 12 -243 12 -27 17
-68 18 -151 0 -103 -2 -117 -21 -142 -12 -15 -19 -35 -16 -45 3 -9 1 -20 -5
-24 -6 -3 -8 -10 -5 -15 3 -5 1 -19 -5 -30 -8 -15 -8 -26 1 -42 9 -16 9 -23 0
-26 -6 -2 -11 -11 -11 -19 0 -9 -11 -31 -25 -49 -14 -18 -25 -41 -25 -51 0
-11 -13 -32 -30 -48 -16 -16 -30 -34 -30 -41 0 -15 -30 -26 -74 -28 -26 -1
-31 -6 -31 -26 0 -24 26 -47 113 -102 30 -19 32 -22 17 -38 -14 -16 -13 -19
20 -44 19 -15 35 -32 35 -39 1 -19 33 -53 69 -71 35 -19 47 -43 49 -98 1 -27
-3 -38 -16 -41 -14 -4 -14 -6 5 -12 12 -4 23 -17 26 -28 2 -12 3 -305 1 -652
-1 -346 -3 -639 -2 -650 1 -256 -2 -660 -7 -692 -3 -23 -12 -44 -20 -47 -8 -3
-15 -15 -15 -27 0 -18 2 -20 16 -8 13 10 17 10 25 -2 13 -20 11 -29 -6 -35
-17 -7 -21 -34 -4 -34 6 0 9 -21 8 -55 -1 -30 0 -58 4 -62 17 -17 3 -83 -17
-83 -8 0 -13 -16 -13 -42 0 -24 -9 -62 -21 -85 -12 -23 -22 -52 -22 -63 0 -23
-56 -80 -78 -80 -11 0 -12 -3 -3 -14 8 -10 5 -19 -14 -40 -13 -14 -30 -26 -38
-26 -8 0 -42 -18 -76 -41 -63 -42 -113 -56 -236 -64 -33 -2 -85 -6 -115 -9
-68 -7 -366 -21 -400 -19 -44 3 -299 5 -500 5 -107 0 -213 0 -235 0 -22 1
-105 0 -185 0 -127 -1 -167 0 -216 6 -7 1 -14 12 -18 24 -5 20 -7 21 -18 7
-22 -26 -91 -43 -118 -29 -16 9 -19 14 -10 20 10 6 8 15 -6 39 -18 30 -18 31
1 45 16 11 17 16 7 29 -9 10 -11 28 -7 51 5 24 2 42 -9 58 -33 47 -10 82 40
60 19 -10 24 -9 24 3 0 8 -4 15 -8 15 -5 0 -23 13 -40 28 -25 23 -32 37 -32
65 0 21 5 37 11 37 5 0 7 5 3 12 -7 10 -16 576 -12 738 1 41 1 91 1 110 -3 98
-3 173 1 245 2 44 1 100 -3 125 -4 25 -3 61 1 80 5 19 8 85 8 145 -1 94 -1
162 0 260 0 11 -3 75 -6 142 -5 92 -2 133 9 172 11 38 12 54 3 66 -12 16 -14
114 -3 132 4 6 1 16 -7 22 -8 7 -12 21 -9 31 4 13 0 20 -9 20 -9 0 -28 10 -43
21 -19 16 -26 28 -22 45 2 13 -2 29 -10 35 -7 7 -11 20 -8 30 4 13 1 19 -9 19
-27 0 -35 33 -40 171 -7 161 -6 138 -2 229 2 41 5 126 6 188 3 103 5 114 27
138 13 15 22 32 20 38 -5 14 61 38 69 25 2 -4 11 -6 19 -2 11 4 13 1 8 -13 -6
-17 -5 -17 10 -6 8 8 17 26 19 40 2 19 9 27 21 26 20 -2 21 1 7 26 -7 13 -6
19 4 23 19 8 9 44 -16 61 -26 19 -50 65 -43 85 2 9 8 72 11 141 8 160 8 152
-1 173 -5 13 -2 17 11 17 12 0 15 3 8 8 -21 14 -22 58 -1 71 16 10 18 19 12
49 -5 20 -7 46 -7 56 1 10 -7 33 -16 50 -15 28 -17 87 -17 653 0 342 -3 624
-7 628 -3 3 -2 22 4 42 5 19 7 65 3 102 -15 159 8 205 95 195 25 -2 57 -1 72
3 15 4 65 5 110 2 46 -3 92 -2 103 1z m-5935 -13 c316 0 610 3 653 5 43 3 80
2 82 -2 8 -12 141 -33 164 -25 11 3 30 1 42 -5 27 -15 69 2 69 27 1 17 2 17
15 0 11 -15 21 -18 53 -12 33 5 42 3 50 -12 9 -16 12 -16 29 -3 12 10 36 14
73 12 30 -1 71 -3 90 -3 62 -2 152 -22 157 -36 3 -7 16 -13 28 -13 13 0 30 -3
38 -6 22 -8 98 -101 102 -125 3 -12 12 -30 21 -40 21 -23 35 -162 33 -324 0
-60 0 -123 1 -140 4 -75 3 -98 -5 -410 -4 -137 -7 -299 -7 -360 0 -60 -3 -112
-7 -115 -4 -3 -3 -41 2 -85 13 -115 17 -726 6 -820 -6 -44 -10 -89 -10 -100 1
-11 3 -72 5 -135 2 -63 4 -151 3 -195 0 -44 0 -93 1 -110 1 -16 2 -82 3 -146
1 -100 -2 -121 -20 -155 -12 -21 -21 -46 -21 -54 0 -36 -54 -118 -107 -163
-50 -43 -61 -48 -91 -43 -28 4 -38 0 -56 -21 -14 -16 -35 -28 -52 -29 -16 -1
-65 -6 -109 -10 -83 -8 -103 -8 -170 -6 -95 4 -652 -7 -667 -13 -10 -4 -32 -2
-49 4 -41 14 -126 14 -135 0 -3 -6 -6 -33 -6 -60 0 -40 -4 -49 -21 -55 -19 -6
-19 -7 8 -21 21 -12 25 -17 14 -24 -11 -7 -11 -11 4 -22 13 -9 17 -22 14 -42
-4 -28 -5 -29 -12 -7 -4 12 -11 22 -16 22 -13 0 -11 -9 11 -67 19 -50 19 -53
2 -53 -16 -1 -16 -2 -1 -13 14 -10 17 -37 20 -152 2 -77 0 -145 -3 -151 -4 -6
-3 -25 1 -42 5 -17 10 -97 10 -179 1 -81 2 -170 3 -198 3 -78 2 -141 -3 -255
-4 -90 -8 -105 -23 -108 -12 -3 -15 -9 -11 -20 16 -40 31 -170 23 -193 -6 -15
-5 -32 1 -47 14 -30 14 -75 0 -89 -7 -7 -8 -20 -3 -34 5 -13 9 -71 11 -129 1
-58 4 -139 6 -180 3 -41 2 -101 -1 -134 -4 -49 -10 -64 -39 -92 -33 -33 -43
-67 -22 -80 8 -4 7 -10 -1 -18 -9 -8 -14 -8 -18 3 -3 11 -9 9 -21 -8 -13 -17
-34 -24 -91 -32 -87 -12 -62 -11 -315 -4 -110 3 -209 5 -220 5 -11 0 -39 -2
-62 -6 -48 -7 -113 11 -113 32 0 8 6 14 14 14 9 0 12 7 9 21 -4 14 -9 17 -16
10 -6 -6 -14 -11 -18 -11 -7 0 -19 46 -22 88 -2 21 -27 33 -27 12 0 -16 -17
-11 -26 8 -4 9 -9 222 -11 472 -3 562 -4 526 6 553 5 12 5 34 0 50 -10 37 -4
394 8 410 16 21 5 293 -15 403 -10 51 -9 69 3 104 9 26 11 48 6 58 -4 10 -11
47 -14 84 -5 56 -3 71 12 89 l18 23 7 -22 c4 -13 16 -22 27 -22 20 0 26 24 9
35 -5 3 -10 19 -10 34 0 31 -27 64 -73 88 -18 9 -26 18 -19 20 20 7 14 33 -8
33 -13 0 -24 -10 -30 -25 -16 -43 -28 -28 -34 48 -4 39 -11 91 -17 113 -8 29
-8 62 0 109 5 38 9 71 6 74 -6 11 -7 203 -1 261 3 30 8 83 10 118 2 39 10 69
20 81 9 9 16 27 16 38 0 20 28 39 65 45 16 3 19 10 17 33 -1 17 -2 61 -2 98 0
38 -5 77 -11 88 -7 13 -7 24 -1 32 8 10 18 493 14 652 -3 98 0 140 10 146 6 4
7 12 3 19 -15 25 -16 43 -14 303 0 50 0 147 -1 175 0 15 1 43 2 62 2 19 3 115
3 213 0 97 3 177 8 177 4 0 6 4 3 9 -9 13 -19 195 -27 446 -6 194 13 245 91
256 25 4 56 4 70 1 14 -3 284 -5 600 -5z"/>
<path d="M15078 7188 c0 -18 0 -43 1 -55 1 -19 -3 -23 -25 -23 l-27 0 7 -77
c4 -43 12 -95 18 -116 10 -33 9 -44 -7 -73 -18 -33 -18 -35 -1 -52 17 -16 18
-15 14 15 -3 22 0 34 10 38 10 4 13 17 10 45 l-4 40 43 0 c24 0 43 5 43 11 0
5 -4 8 -9 5 -4 -3 -19 6 -31 19 -13 14 -29 25 -37 25 -7 0 -13 9 -13 20 0 11
2 20 5 20 3 0 14 -9 25 -20 26 -26 60 -26 60 0 0 14 -5 18 -16 13 -13 -5 -15
-2 -9 15 3 12 2 22 -3 22 -13 0 -42 73 -42 105 0 13 5 27 10 30 12 7 4 25 -11
25 -5 0 -10 -15 -11 -32z"/>
<path d="M11627 11116 c-4 -11 -23 -13 -86 -10 -75 4 -81 2 -92 -18 -7 -12
-11 -45 -11 -73 6 -175 -8 -463 -27 -570 -6 -36 -7 -72 -2 -90 23 -77 1 -209
-28 -166 -14 21 -29 5 -23 -25 3 -16 18 -34 38 -46 39 -23 40 -26 17 -44 -16
-11 -17 -16 -4 -46 18 -43 26 -127 13 -140 -7 -7 -7 -19 0 -37 6 -14 10 -93 9
-176 -1 -154 5 -183 34 -172 9 4 26 0 39 -8 16 -11 30 -12 54 -6 27 8 32 7 32
-8 0 -37 46 -55 70 -26 15 18 50 20 50 2 0 -23 71 -14 143 18 58 25 67 33 62
50 -22 76 -32 318 -27 612 2 95 4 111 17 107 8 -4 15 -1 15 5 0 6 -4 11 -10
11 -13 0 -13 101 0 134 6 17 4 47 -6 98 -12 58 -13 85 -5 128 8 38 8 95 1 184
-9 113 -8 133 6 154 11 17 15 37 11 64 -6 47 -22 68 -52 68 -12 0 -28 7 -35
15 -14 17 -56 19 -120 4 -37 -8 -46 -7 -56 5 -14 20 -20 20 -27 2z"/>
<path d="M11581 8617 c-7 -10 -21 -17 -31 -17 -25 0 -84 -26 -99 -43 -6 -8
-14 -32 -17 -53 -5 -36 -17 -398 -15 -469 3 -162 1 -403 -4 -457 -4 -44 -2
-77 7 -100 11 -26 12 -73 6 -223 -4 -104 -6 -208 -3 -230 3 -22 -2 -62 -10
-89 -12 -40 -13 -51 -3 -58 10 -6 9 -8 -3 -8 -21 0 -35 -70 -16 -82 9 -5 7
-16 -7 -43 -17 -31 -18 -38 -5 -46 7 -5 19 -9 25 -9 6 0 21 -11 34 -25 13 -14
32 -25 41 -25 10 0 23 -9 29 -20 13 -23 30 -26 30 -5 0 8 13 21 30 30 36 19
40 19 40 1 0 -23 36 -28 70 -11 38 20 75 16 75 -7 0 -27 10 -29 61 -16 60 15
74 24 74 52 0 21 31 56 49 56 18 0 -3 42 -26 53 l-25 11 2 206 c3 230 6 260
25 260 16 0 25 -22 25 -66 0 -19 5 -34 10 -34 7 0 9 13 5 33 -3 17 -7 57 -8
88 -1 41 -6 55 -15 52 -7 -3 -19 0 -27 7 -16 13 -15 -34 -18 722 -2 368 -6
491 -15 500 -6 6 -12 26 -13 43 0 28 -1 28 -9 8 -6 -15 -15 -21 -25 -17 -8 4
-29 1 -46 -6 -26 -11 -32 -11 -39 1 -7 11 -12 11 -27 -2 -22 -19 -53 -31 -53
-21 0 5 7 17 15 28 27 35 17 49 -14 20 -33 -32 -58 -30 -63 5 -3 20 -4 21 -17
6z"/>
<path d="M5208 11078 c-9 -7 -26 -39 -37 -71 -18 -53 -19 -61 -5 -81 10 -16
14 -51 14 -122 0 -145 -6 -259 -14 -272 -4 -6 -2 -21 4 -32 6 -11 11 -60 11
-108 0 -48 0 -105 0 -127 0 -22 0 -56 -1 -75 -1 -19 0 -80 3 -135 3 -55 6
-226 7 -379 2 -259 1 -281 -16 -293 -10 -7 -24 -13 -32 -13 -7 0 -12 -6 -9
-12 2 -7 -3 -21 -11 -31 -15 -16 -15 -21 -1 -45 8 -15 26 -32 39 -39 18 -9 25
-21 25 -40 0 -25 4 -28 35 -31 87 -6 290 -6 340 0 49 6 58 5 80 -17 21 -20 28
-22 43 -11 22 17 22 29 -5 76 -21 36 -22 41 -7 55 21 21 49 9 49 -21 0 -21 3
-24 28 -18 42 10 45 17 26 73 -9 29 -14 64 -10 81 4 24 2 30 -12 30 -11 0 -6
7 16 20 36 22 39 32 17 50 -12 10 -15 9 -15 -5 0 -11 -5 -15 -15 -11 -8 3 -22
9 -30 12 -13 5 -15 -6 -15 -71 0 -57 -3 -76 -12 -73 -7 3 -15 15 -16 29 -2 13
-8 29 -13 35 -9 11 -13 88 -10 191 1 40 6 55 22 67 20 13 20 15 4 40 -9 14
-14 30 -10 35 3 6 1 20 -5 32 -8 13 -8 29 -2 47 5 16 6 65 0 122 -17 182 -17
223 -1 254 12 24 13 33 2 55 -8 17 -14 83 -16 191 -7 376 -5 450 12 450 23 0
27 35 9 79 -9 23 -14 45 -11 48 10 9 -32 63 -49 63 -8 0 -14 -5 -14 -11 0 -5
-5 -7 -10 -4 -6 3 -18 -2 -28 -11 -16 -16 -17 -16 -20 -1 -2 11 -14 17 -35 18
-102 5 -143 8 -163 13 -12 3 -36 1 -54 -5 -23 -9 -34 -9 -43 0 -14 14 -19 14
-39 -1z"/>
</g>
</svg>
